<?xml version="1.0" encoding="utf-8" ?><svg xmlns="http://www.w3.org/2000/svg" xmlns:xlink="http://www.w3.org/1999/xlink" width="307" height="307" viewBox="0 0 307 307"><path fill="#DC6863" d="M191.331 80.6716C183.639 67.1492 182.585 46.9714 193.993 35.1803C202.661 26.2217 216.824 23.8813 226.219 33.0388C229.257 36.2177 229.898 37.8781 230.607 42.2223C230.716 42.8895 230.908 44.4034 231.127 44.9454C235.612 51.2364 240.079 55.9231 238.468 64.0153C237.707 67.8377 234.505 72.7964 231.538 75.1831C230.742 76.0609 229.736 77.129 228.506 77.1203C227.19 75.2008 227.817 66.6777 226.918 62.6696C226.678 61.8066 225.904 60.0908 225.561 59.0312L223.27 55.3593C219.508 52.5109 211.64 54.3114 207.494 47.6945C205.231 45.7105 202.668 46.4532 200.019 47.0272C195.832 50.8402 195.96 54.8214 196.161 60.1513C198.49 77.6221 219.169 95.5396 225.585 112.172C227.361 116.776 227.9 118.961 228.757 123.877C231.967 134.568 228.321 149.323 222.954 158.746C219.331 165.105 218.639 165.605 213.7 170.798C207.666 177.567 198.06 183.186 189.661 186.551C187.699 187.385 181.084 189.798 179.17 189.925C178.925 189.867 178.629 189.797 178.281 189.715C176.559 190.388 174.339 190.681 172.611 191.051C169.21 191.781 165.947 192.071 162.556 192.528C161.468 192.674 158.905 194.494 157.342 194.527C148.777 195.554 141.512 206.272 136.595 212.429C136.077 213.078 133.44 216.29 132.964 216.606C132.463 217.938 131.579 219.931 132.391 221.235C134.691 224.929 139.885 227.266 143.406 229.705C145.585 231.214 148.314 233.191 150.504 234.176C152.017 235.245 153.586 236.207 155.155 237.191C161.275 241.799 167.377 246.204 173.613 250.635C178.248 253.927 181.191 260.143 181.956 265.68C182.323 268.336 182.033 275.394 179.355 276.778C178.139 275.742 179.018 268.418 177.047 266.93C176.288 266.358 175.209 266.872 174.522 266.209C172.914 264.047 172.732 260.312 171.879 257.863C170.355 253.488 161.974 246.526 157.794 244.988C157.339 244.843 156.961 244.416 156.724 244.013L157.368 243.643C157.114 242.962 153.454 241.07 152.619 240.611C151.137 238.373 147.442 236.862 145.011 235.342C143.325 234.445 141.333 232.532 139.023 232.616C136.167 230.74 131.996 228.537 129.466 226.647C127.862 226.108 126.304 224.574 125.542 223.047C123.499 218.956 127.608 216.395 129.946 213.458C134.348 207.925 139.99 202.303 142.442 195.535L142.821 195.324L142.906 194.722C140.74 192.184 123.343 192.137 120.323 188.534C120.494 187.785 120.474 188.004 121.25 187.399L120.84 187.198C121.45 186.752 122.532 186.347 122.901 185.809C124.021 184.175 122.744 183.422 123.61 181.623C122.305 181.345 121.009 181.031 119.721 180.683C118.225 180.274 112.728 178.854 112.018 177.611C115.404 178.398 118.54 180.241 122.145 180.77C127.035 181.487 132.377 182.532 137.315 182.61C144.755 182.625 153.84 181.894 160.843 179.239C162.157 178.623 165.137 177.985 166.833 177.174C171.216 175.079 175.452 172.407 179.492 169.733C188.449 161.467 192.771 150.536 189.503 138.298C189.144 136.956 187.461 133.513 187.654 132.703C188.127 132.682 188.578 132.755 188.894 133.174C192.843 138.417 197.86 143.828 205.092 140.636C211.346 137.876 212.808 131.171 212.681 124.827C212.331 107.436 198.454 95.1492 191.331 80.6716Z"/><defs><linearGradient id="gradient_0" gradientUnits="userSpaceOnUse" x1="188.10371" y1="88.243103" x2="232.0148" y2="84.943138"><stop offset="0" stop-color="#EC8987"/><stop offset="1" stop-color="#F9AE95"/></linearGradient></defs><path fill="url(#gradient_0)" d="M191.331 80.6716C183.639 67.1492 182.585 46.9714 193.993 35.1803C202.661 26.2217 216.824 23.8813 226.219 33.0388C229.257 36.2177 229.898 37.8781 230.607 42.2223C230.716 42.8895 230.908 44.4034 231.127 44.9454C235.612 51.2364 240.079 55.9231 238.468 64.0153C237.707 67.8377 234.505 72.7964 231.538 75.1831C230.742 76.0609 229.736 77.129 228.506 77.1203C227.19 75.2008 227.817 66.6777 226.918 62.6696C226.678 61.8066 225.904 60.0908 225.561 59.0312L223.27 55.3593C219.508 52.5109 211.64 54.3114 207.494 47.6945C205.231 45.7105 202.668 46.4532 200.019 47.0272C195.832 50.8402 195.96 54.8214 196.161 60.1513C198.49 77.6221 219.169 95.5396 225.585 112.172C227.361 116.776 227.9 118.961 228.757 123.877C228.545 125.325 228.785 127.77 228.718 129.386C228.56 133.159 227.042 136.475 225.705 139.848C224.821 142.078 219.939 150.858 218.157 151.551L218.248 151.711L218.12 151.82L218.447 151.54L218.32 151.314C219.894 149.005 221.563 146.631 223.053 144.28C222.715 144.126 222.479 143.903 222.191 143.669C221.431 143.775 221.549 143.896 220.947 144.618L220.718 143.433C219.249 143.899 218.048 151.375 216.789 152.558L216.622 152.268C218.147 149.815 219.111 143.99 220.115 141.136C220.382 140.376 221.058 137.744 221.116 137.051C221.577 131.494 220.202 125.807 219.406 120.33C219.429 119.833 218.705 118.608 218.704 118.288C218.694 113.648 216.478 110.163 214.312 106.012L214.02 106.115C215.58 109.619 217.341 111.735 218.129 115.488L217.971 115.713C217.656 115.565 216.761 115.122 216.472 115.104C214.504 114.98 213.784 111.24 212.402 109.232C211.515 111.711 216.034 115.107 215.345 118.823C214.657 119.768 214.099 120.955 213.481 121.992C211.999 114.019 209.676 107.5 205.286 100.65C203.301 97.5532 200.728 94.4622 199.422 90.8718L199.585 90.6541C201.096 91.6412 200.925 92.8545 201.24 93.2705L201.722 93.1225C200.157 89.419 199.372 87.3781 196.091 84.701C194.432 83.3477 193.327 81.7764 191.331 80.6716Z"/><defs><linearGradient id="gradient_1" gradientUnits="userSpaceOnUse" x1="224.37854" y1="62.016689" x2="236.16061" y2="65.542374"><stop offset="0" stop-color="#48211B"/><stop offset="1" stop-color="#8F464E"/></linearGradient></defs><path fill="url(#gradient_1)" d="M231.127 44.9454C235.612 51.2364 240.079 55.9231 238.468 64.0153C237.707 67.8377 234.505 72.7964 231.538 75.1831C230.742 76.0609 229.736 77.129 228.506 77.1203C227.19 75.2008 227.817 66.6777 226.918 62.6696C226.678 61.8066 225.904 60.0908 225.561 59.0312L223.27 55.3593L222.875 54.2887C221.394 52.8262 221.506 51.8977 221.421 49.9024C221.306 49.2951 221.341 49.0886 221.376 48.4643L221.755 48.1258C222.542 48.0462 222.814 47.9971 223.579 47.775L223.77 47.7183C224.404 47.4745 224.465 47.4795 224.882 46.9724L225.801 46.5311C227.019 46.2393 229.354 46.3585 230.689 46.3755L232.167 47.7487C231.647 47.0217 231.386 45.8396 231.127 44.9454Z"/><defs><linearGradient id="gradient_2" gradientUnits="userSpaceOnUse" x1="225.69049" y1="63.696293" x2="227.05717" y2="48.80349"><stop offset="0" stop-color="#DD969B"/><stop offset="1" stop-color="#F8CDC5"/></linearGradient></defs><path fill="url(#gradient_2)" d="M224.882 46.9724C225.444 48.5879 226.386 49.0505 227.783 50.0721L227.874 51.1C230.566 53.7641 231.39 56.2352 232.089 59.8629C231.555 61.7874 230.713 64.9773 228.344 64.8309C227.404 64.1728 227.487 63.8596 226.918 62.6696C226.678 61.8066 225.904 60.0908 225.561 59.0312L223.27 55.3593L222.875 54.2887C221.394 52.8262 221.506 51.8977 221.421 49.9024C221.306 49.2951 221.341 49.0886 221.376 48.4643L221.755 48.1258C222.542 48.0462 222.814 47.9971 223.579 47.775L223.77 47.7183C224.404 47.4745 224.465 47.4795 224.882 46.9724Z"/><path fill="#F19C99" d="M222.875 54.2887C224.096 53.2644 223.811 51.4766 225.024 51.3329C225.662 52.6848 225.147 53.0914 225.169 54.4916C225.192 55.913 225.723 57.6493 225.561 59.0312L223.27 55.3593L222.875 54.2887Z"/><path fill="#4E4747" d="M224.882 46.9724C225.444 48.5879 226.386 49.0505 227.783 50.0721L227.874 51.1C226.853 50.2188 224.838 48.2247 223.77 47.7183C224.404 47.4745 224.465 47.4795 224.882 46.9724Z"/><path fill="#F8C8B1" d="M230.689 46.3755L232.167 47.7487C234.091 50.1019 238.181 55.1881 237.056 58.3352C236.683 58.5437 235.334 59.7689 234.93 60.1236C233.176 55.5522 231.39 53.2634 227.783 50.0721C226.386 49.0505 225.444 48.5879 224.882 46.9724L225.801 46.5311C227.019 46.2393 229.354 46.3585 230.689 46.3755Z"/><path fill="#81363E" d="M231.127 44.9454C235.612 51.2364 240.079 55.9231 238.468 64.0153C237.707 67.8377 234.505 72.7964 231.538 75.1831C232.496 72.8999 236.03 69.4859 236.493 66.3074C236.746 64.5721 237.441 61.0564 237.567 59.1703C237.366 58.8416 237.196 58.5632 237.056 58.3352C238.181 55.1881 234.091 50.1019 232.167 47.7487C231.647 47.0217 231.386 45.8396 231.127 44.9454Z"/><path fill="#DC6863" d="M206.986 40.2894C207.344 40.7007 207.695 41.1178 208.039 41.5404C209.243 43.8108 210.909 45.6177 212.334 47.7511C215.14 49.1055 216.107 49.2169 219.24 49.1708L219.448 49.7034C220.404 49.9415 220.957 49.6631 221.421 49.9024C221.506 51.8977 221.394 52.8262 222.875 54.2887L223.27 55.3593C219.508 52.5109 211.64 54.3114 207.494 47.6945C205.231 45.7105 202.668 46.4532 200.019 47.0272C195.832 50.8402 195.96 54.8214 196.161 60.1513C194.66 55.5225 196.232 51.6727 198.066 47.7256C197.954 47.625 197.843 47.5222 197.735 47.417C196.779 46.4725 197.095 44.9151 197.112 43.4041C194.013 47.6823 193.419 48.5316 191.932 53.4866L191.765 53.476C192.436 49.8874 194.045 46.5403 196.428 43.7745C199.625 40.1273 202.565 40.5427 206.986 40.2894Z"/><path fill="#C35860" d="M200.019 47.0272C200.877 44.1656 207.335 44.0649 207.494 47.6945C205.231 45.7105 202.668 46.4532 200.019 47.0272Z"/><path fill="#E57F7F" d="M226.219 33.0388C229.257 36.2177 229.898 37.8781 230.607 42.2223C230.716 42.8895 230.908 44.4034 231.127 44.9454C231.386 45.8396 231.647 47.0217 232.167 47.7487L230.689 46.3755C229.354 46.3585 227.019 46.2393 225.801 46.5311L224.882 46.9724C224.465 47.4795 224.404 47.4745 223.77 47.7183L223.579 47.775C222.814 47.9971 222.542 48.0462 221.755 48.1258L221.376 48.4643C221.341 49.0886 221.306 49.2951 221.421 49.9024C220.957 49.6631 220.404 49.9415 219.448 49.7034L219.24 49.1708C221.673 46.1833 216.125 44.236 217.787 40.5621C217.974 39.8964 218.145 39.2263 218.3 38.5526L216.474 37.5637C221.089 33.807 224.14 40.226 226.915 42.5467C227.527 42.6265 227.976 42.4304 228.574 42.2537C229.382 39.8789 225.956 35.57 226.219 33.0388Z"/><path d="M218.3 38.5526C220.004 39.9843 221.236 40.2562 223.163 41.266C223.931 42.4662 225.996 44.9667 226.084 45.8633L225.801 46.5311L224.882 46.9724C224.465 47.4795 224.404 47.4745 223.77 47.7183L223.579 47.775C222.814 47.9971 222.542 48.0462 221.755 48.1258L221.376 48.4643C221.341 49.0886 221.306 49.2951 221.421 49.9024C220.957 49.6631 220.404 49.9415 219.448 49.7034L219.24 49.1708C221.673 46.1833 216.125 44.236 217.787 40.5621C217.974 39.8964 218.145 39.2263 218.3 38.5526Z"/><path fill="#DC6863" d="M219.24 49.1708C221.673 46.1833 216.125 44.236 217.787 40.5621C217.896 42.1689 220.029 46.1402 221.373 47.2136C222.201 47.8738 222.344 47.8358 223.349 47.7572C223.49 47.746 223.63 47.733 223.77 47.7183L223.579 47.775C222.814 47.9971 222.542 48.0462 221.755 48.1258L221.376 48.4643C221.341 49.0886 221.306 49.2951 221.421 49.9024C220.957 49.6631 220.404 49.9415 219.448 49.7034L219.24 49.1708Z"/><path fill="#E57F7F" d="M216.474 37.5637L218.3 38.5526C218.145 39.2263 217.974 39.8964 217.787 40.5621C216.125 44.236 221.673 46.1833 219.24 49.1708C216.107 49.2169 215.14 49.1055 212.334 47.7511C210.909 45.6177 209.243 43.8108 208.039 41.5404C209.348 42.0836 211.597 46.239 212.93 46.9356C214.39 47.6989 218.188 49.9196 219.298 47.8737C219.171 45.7045 215.822 43.2869 215.108 41.2214C214.874 40.5418 216.139 38.2149 216.474 37.5637Z"/><path fill="#E57F7F" d="M145.114 234.882C147.921 235.518 160.531 245.133 164.084 246.531C163.601 246.341 169.967 251.925 170.334 252.219C170.594 251.634 170.399 251.851 170.898 251.512C172.725 252.442 174.841 256.261 176.106 257.387C179.476 260.387 177.39 270.886 180.645 272.829C181.897 269.833 181.792 269.322 181.323 266.129C179.767 255.538 173.907 250.749 165.238 245.336C161.718 243.139 157.678 239.569 153.932 237.094L140.729 228.457C136.968 226.031 128.404 222.239 132.704 216.458L132.964 216.606C132.463 217.938 131.579 219.931 132.391 221.235C134.691 224.929 139.885 227.266 143.406 229.705C145.585 231.214 148.314 233.191 150.504 234.176C152.017 235.245 153.586 236.207 155.155 237.191C161.275 241.799 167.377 246.204 173.613 250.635C178.248 253.927 181.191 260.143 181.956 265.68C182.323 268.336 182.033 275.394 179.355 276.778C178.139 275.742 179.018 268.418 177.047 266.93C176.288 266.358 175.209 266.872 174.522 266.209C172.914 264.047 172.732 260.312 171.879 257.863C170.355 253.488 161.974 246.526 157.794 244.988C157.339 244.843 156.961 244.416 156.724 244.013L157.368 243.643C157.114 242.962 153.454 241.07 152.619 240.611C151.137 238.373 147.442 236.862 145.011 235.342L145.114 234.882Z"/><path fill="#B13942" d="M112.018 177.611C115.404 178.398 118.54 180.241 122.145 180.77C127.035 181.487 132.377 182.532 137.315 182.61C138.066 183.063 145.163 182.849 146.587 182.894C143.557 183.576 139.771 182.744 136.845 183.739C135.066 184.344 136.003 185.101 133.463 185.128C133.276 185.653 133.295 185.386 133.452 185.958C133.856 186.22 134.265 186.58 134.71 186.56L134.574 186.929C135.215 187.513 135.736 187.139 136.256 187.381C141.014 189.594 138.657 183.93 143.686 184.617C143.071 185.095 141.352 185.624 141.247 185.72C139.778 187.056 140.57 188.957 138.067 188.479C134.027 187.709 125.103 185.96 121.25 187.399L120.84 187.198C121.45 186.752 122.532 186.347 122.901 185.809C124.021 184.175 122.744 183.422 123.61 181.623C122.305 181.345 121.009 181.031 119.721 180.683C118.225 180.274 112.728 178.854 112.018 177.611Z"/><path fill="#E57F7F" d="M129.466 226.647C130.513 226.644 131.722 226.291 132.454 226.974C132.873 227.364 134.404 227.592 135.011 227.713L135.334 227.561C133.565 225.522 130.152 223.628 128.105 221.803C127.338 221.12 128.634 217.947 130.019 217.544L130.647 217.748L130.766 218.126C129.965 218.673 129.222 219.054 128.854 219.94C128.813 220.72 128.82 220.814 129.232 221.473C131.488 222.724 132.913 224.464 135.032 226.091C137.275 227.814 141.15 229.063 142.279 231.478C143.234 233.522 143.51 233.574 145.114 234.882L145.011 235.342C143.325 234.445 141.333 232.532 139.023 232.616C136.167 230.74 131.996 228.537 129.466 226.647Z"/><path fill="#81363E" d="M160.843 179.239C162.157 178.623 165.137 177.985 166.833 177.174C171.216 175.079 175.452 172.407 179.492 169.733C179.316 170.713 178.855 170.876 178.052 171.434C175.778 173.013 170.652 176.845 168.52 177.772C166.219 178.772 156.94 180.799 155.643 181.871C155.493 181.994 155.331 182.101 155.175 182.216C153.777 183.244 148.371 182.821 146.587 182.894C145.163 182.849 138.066 183.063 137.315 182.61C144.755 182.625 153.84 181.894 160.843 179.239Z"/><path fill="#B13942" d="M189.661 186.551C190.677 185.352 198.872 181.3 201.026 179.971C204.896 177.584 209.956 171.777 213.7 170.798C207.666 177.567 198.06 183.186 189.661 186.551Z"/><path fill="#B13942" d="M134.71 186.56C134.985 186.13 135.205 185.808 135.509 185.398L136.089 185.304L136.53 185.699L136.377 186.021C135.799 186.22 135.595 186.265 135.091 186.598L134.71 186.56Z"/><path fill="#E57F7F" d="M62.2972 124.822C64.5139 126.391 68.0177 128.891 70.584 129.91C80.0449 133.667 94.0732 134.915 104.095 133.348C112.383 132.052 120.169 129.772 128.067 127.244C132.161 125.934 136.143 124.179 140.191 123.026C151.624 119.771 165.816 118.315 176.022 125.689C181.068 129.335 184.045 133.855 185.071 140.045C185.653 143.558 185.693 149.441 184.035 152.579C181.119 162.694 169.529 170.952 160.035 174.165C159.094 174.672 158.526 174.727 158.18 175.85C157.762 177.207 157.772 178.663 159.231 179.398C159.899 179.38 160.186 179.36 160.843 179.239C153.84 181.894 144.755 182.625 137.315 182.61C132.377 182.532 127.035 181.487 122.145 180.77C118.54 180.241 115.404 178.398 112.018 177.611C109.85 176.608 102.875 173.276 101.465 171.65C103.236 170.365 103.528 169.754 103.254 167.618L103.913 167.225C107.329 166.554 106.941 166.087 107.012 162.828C102.233 161.474 95.5887 161.198 91.0116 157.815C79.998 152.584 72.1379 145.911 65.6175 135.415C64.4378 133.516 60.446 126.313 60.7493 124.229L61.1781 124.009C61.7987 124.308 61.8582 124.312 62.2972 124.822Z"/><defs><linearGradient id="gradient_3" gradientUnits="userSpaceOnUse" x1="122.92973" y1="152.11099" x2="129.12575" y2="115.40533"><stop offset="0" stop-color="#F6A9A8"/><stop offset="1" stop-color="#F7D0C2"/></linearGradient></defs><path fill="url(#gradient_3)" d="M62.2972 124.822C64.5139 126.391 68.0177 128.891 70.584 129.91C80.0449 133.667 94.0732 134.915 104.095 133.348C112.383 132.052 120.169 129.772 128.067 127.244C132.161 125.934 136.143 124.179 140.191 123.026C151.624 119.771 165.816 118.315 176.022 125.689C181.068 129.335 184.045 133.855 185.071 140.045C185.653 143.558 185.693 149.441 184.035 152.579C183.458 151.604 185.01 148.429 184.751 146.982C184.387 144.946 182.923 146.189 181.961 144.709C180.81 143.293 176.876 140.765 175.102 139.945C170.742 137.93 164.388 137.146 159.842 138.803C158.215 138.88 155.588 139.895 153.993 140.358C142.749 143.617 132.438 148.509 120.675 149.969C113.166 151.112 106.115 150.073 98.8557 148.165C90.1208 145.868 81.2091 143.335 73.9852 137.641C72.4605 136.439 65.3185 130.559 65.1027 128.889L65.4309 128.65L66.3519 129.133L66.6494 128.952C66.5098 127.863 63.5949 126.891 62.1962 125.368L62.2972 124.822Z"/><path d="M101.465 171.65C103.236 170.365 103.528 169.754 103.254 167.618C118.402 177.277 138.139 179.085 155.436 175.27C156.975 174.926 158.508 174.558 160.035 174.165C159.094 174.672 158.526 174.727 158.18 175.85C157.762 177.207 157.772 178.663 159.231 179.398C159.899 179.38 160.186 179.36 160.843 179.239C153.84 181.894 144.755 182.625 137.315 182.61C132.377 182.532 127.035 181.487 122.145 180.77C118.54 180.241 115.404 178.398 112.018 177.611C109.85 176.608 102.875 173.276 101.465 171.65Z"/><path d="M91.0116 157.815C102.338 162.342 111.233 163.348 123.351 160.625C124.868 160.284 129.137 159.001 130.165 160.182C129.765 161.544 128.838 161.759 127.664 162.505C122.155 166.006 110.307 168.315 103.913 167.225C107.329 166.554 106.941 166.087 107.012 162.828C102.233 161.474 95.5887 161.198 91.0116 157.815Z"/><path fill="#F19C99" d="M159.842 138.803C164.388 137.146 170.742 137.93 175.102 139.945C176.876 140.765 180.81 143.293 181.961 144.709C181.555 144.507 180.914 144.126 180.502 144.129C180.352 144.944 180.502 144.718 180.013 145.302C178.92 145.196 177.057 145.977 176.649 146.917C175.876 147.194 173.672 145.123 171.243 145.036C171.129 146.171 171.069 147.499 170.259 148.324C169.59 148.373 169.622 148.468 169.123 148.009C168.016 146.981 168.022 146.098 168.054 144.696C168.103 142.565 168.009 140.445 167.867 138.325C165.06 138.183 162.609 138.767 159.842 138.803Z"/><path fill="#F19C99" d="M93.5787 19.595C95.5554 19.3117 98.4327 18.8821 100.384 19.1428C107.468 20.0892 114.686 22.8153 120.38 27.0087C132.69 36.0754 141.522 46.3071 146.734 60.848C147.904 64.1127 149.024 67.2031 149.565 70.6632C151.153 82.2296 150.62 89.6089 144.496 99.7201C143.177 100.541 143.409 101.809 142.912 103.093C141.797 102.861 140.843 103.044 139.719 103.066C136.903 103.122 134.131 102.738 131.315 102.7C130.557 102.204 127.001 100.966 125.945 100.556C111.838 95.07 103.294 83.0802 103.707 67.885C103.384 61.0787 104.608 54.6779 104.871 48.0504C105.279 37.7655 101.947 27.2078 94.1861 20.1478L93.5787 19.595Z"/><defs><linearGradient id="gradient_4" gradientUnits="userSpaceOnUse" x1="117.03283" y1="94.876816" x2="140.83127" y2="68.796097"><stop offset="0" stop-color="#CD5B66"/><stop offset="1" stop-color="#F16B63"/></linearGradient></defs><path fill="url(#gradient_4)" d="M115.213 60.8851C115.448 58.9139 115.875 56.8447 116.184 54.8474C116.096 57.7195 115.981 58.9512 115.335 61.7565C116.279 61.9104 117.363 62.2155 118.198 61.8212C119.899 59.8508 116.952 57.168 117.458 55.0717C117.557 55.582 119.153 61.3706 119.248 61.5913C121.12 65.9175 122.432 70.76 125.041 74.6868C126.722 77.0938 129.263 79.2895 130.986 81.638C132.298 81.4958 133.535 81.0694 134.799 80.6858C135.564 79.9023 136.299 79.1498 137.03 78.3344L136.841 77.7202L135.02 77.5931L134.955 77.3591C136.554 77.0053 139.207 76.4264 140.915 75.9965C140.949 75.9881 141.452 76.2834 141.514 76.3249C141.934 76.6071 142.358 77.2812 142.649 77.7085C143.626 77.7272 144.247 76.7927 144.85 76.0812C146.731 75.891 147.839 76.0261 149.705 76.19C149.802 75.1695 148.834 72.512 149.565 70.6632C151.153 82.2296 150.62 89.6089 144.496 99.7201C143.177 100.541 143.409 101.809 142.912 103.093C141.797 102.861 140.843 103.044 139.719 103.066C136.903 103.122 134.131 102.738 131.315 102.7C130.557 102.204 127.001 100.966 125.945 100.556C111.838 95.07 103.294 83.0802 103.707 67.885L103.767 68.0862C104.402 70.2535 104.932 75.8674 106.115 76.8728C107.413 77.3063 108.324 77.1377 108.906 78.1975C109.912 80.0271 111.363 85.8814 113.284 86.6028C115.349 85.9013 113.891 84.423 115.158 83.2208C116.413 83.0242 116.454 83.1885 117.283 82.4583C117.5 82.8512 117.719 83.1725 117.963 83.5465L118.057 83.4428C115.434 77.4962 115.305 73.3569 115.038 66.8423C114.95 64.7001 115.653 63.353 115.213 60.8851Z"/><path fill="#DC6863" d="M117.283 82.4583C115.748 79.6147 115.695 74.9241 114.228 73.717C112.885 73.4535 111.74 73.932 111.236 75.2935L111.475 75.699C111.091 76.3768 109.876 76.2333 109.296 75.8304C107.871 74.8419 107.317 72.9966 106.926 71.407C107.864 72.6466 108.731 74.884 110.216 75.1755C111.347 74.2468 111.979 73.6463 112.993 72.5898C112.459 67.7664 112.857 62.7916 112.13 57.9822C112.027 57.2981 111.475 55.8063 111.51 55.3344L111.917 55.4743C112.049 55.7734 112.159 56.0717 112.29 56.3658C113.561 59.2123 112.787 67.1681 113.442 69.5804C113.897 69.4629 114.012 69.5258 114.462 69.6371L114.608 69.6747C115.076 68.3642 114.149 63.5019 115.213 60.8851C115.653 63.353 114.95 64.7001 115.038 66.8423C115.305 73.3569 115.434 77.4962 118.057 83.4428L117.963 83.5465C117.719 83.1725 117.5 82.8512 117.283 82.4583Z"/><path fill="#DC6863" d="M110.252 76.3593C111.788 76.6649 113.867 76.7442 114.33 78.3388C113.252 78.514 110.479 78.1761 109.882 77.1329L110.252 76.3593Z"/><path fill="#ED897A" d="M154.112 31.9368C155.903 29.839 157.89 27.9171 160.047 26.1972C167.087 20.6806 177.092 18.2705 185.96 19.3452C184.892 20.6191 183.316 22.0425 182.465 23.414C180.769 26.1008 179.315 28.1471 177.888 31.0526C172.579 41.8673 174.942 52.623 175.963 63.9843C177.45 80.5271 170.014 94.4343 154.052 100.148C150.869 101.622 148.644 102.36 146.513 105.208C146.787 104.005 146.982 103.877 146.52 102.961C145.734 102.67 144.078 103.155 142.912 103.093C143.409 101.809 143.177 100.541 144.496 99.7201C144.838 100.154 144.631 99.9626 145.24 100.197C147.773 99.6838 149.111 97.9562 150.618 95.9662C156.953 86.4652 154.964 72.0695 152.486 61.3086C151.848 58.5401 149.393 55.1119 148.593 52.3016C143.498 44.9184 148.534 37.205 154.112 31.9368Z"/><path fill="#E57F7F" d="M164.897 50.0507C165.319 47.7638 165.976 45.1502 166.548 42.8905C168.288 36.0205 174.963 24.8706 182.465 23.414C180.769 26.1008 179.315 28.1471 177.888 31.0526C172.579 41.8673 174.942 52.623 175.963 63.9843C177.45 80.5271 170.014 94.4343 154.052 100.148C150.869 101.622 148.644 102.36 146.513 105.208C146.787 104.005 146.982 103.877 146.52 102.961C145.734 102.67 144.078 103.155 142.912 103.093C143.409 101.809 143.177 100.541 144.496 99.7201C144.838 100.154 144.631 99.9626 145.24 100.197C147.773 99.6838 149.111 97.9562 150.618 95.9662L152.217 96.0119C153.785 94.7799 155.845 92.3273 157.048 90.697C159.991 88.2406 164.348 74.6824 164.537 70.8584C164.246 70.184 165.196 67.4491 165.233 66.3871C165.357 62.8041 164.766 59.5481 164.701 55.8838L164.461 55.8466C163.095 59.897 166.145 69.1837 162.615 73.2163C161.936 73.9919 160.949 74.803 159.87 74.8545L159.525 74.4451C159.523 73.9483 159.501 73.9759 159.751 73.5511C160.074 73.9433 160.188 74.1475 160.651 74.3702C160.818 74.306 161.136 74.1884 161.267 74.0529C165.134 69.8837 163.243 64.2941 163.354 59.2618C163.371 58.4881 163.771 57.1174 163.899 56.3021C164.207 54.3447 164.818 52.2463 164.891 50.2654L164.897 50.0507Z"/><path fill="#C35860" d="M150.618 95.9662L152.217 96.0119C151.22 96.5071 149.414 99.375 148.383 100.611L148.384 100.758C149.576 100.878 150.518 100.315 151.726 100.16C152.564 100.053 153.301 100.186 154.052 100.148C150.869 101.622 148.644 102.36 146.513 105.208C146.787 104.005 146.982 103.877 146.52 102.961C145.734 102.67 144.078 103.155 142.912 103.093C143.409 101.809 143.177 100.541 144.496 99.7201C144.838 100.154 144.631 99.9626 145.24 100.197C147.773 99.6838 149.111 97.9562 150.618 95.9662Z"/><path fill="#ED897A" d="M166.451 58.4213C167.734 58.4141 169.463 58.3685 170.21 59.5871C170.141 60.34 170.241 60.0563 169.624 60.6841C168.46 60.5823 167.137 60.5933 166.295 59.801C166.105 58.9328 166.079 59.2963 166.451 58.4213Z"/><path fill="#F8C8B1" d="M154.112 31.9368C155.903 29.839 157.89 27.9171 160.047 26.1972C167.087 20.6806 177.092 18.2705 185.96 19.3452C184.892 20.6191 183.316 22.0425 182.465 23.414C174.963 24.8706 168.288 36.0205 166.548 42.8905C165.976 45.1502 165.319 47.7638 164.897 50.0507C164.189 47.2724 167.478 44.5651 164.521 42.6592L164.124 42.7594C163.642 44.8364 163.563 47.186 163.39 49.338C162.894 48.3219 163.509 43.4735 163.64 42.1781C163.02 42.7178 162.592 43.047 161.936 43.5208L161.745 43.4689C166.964 38.0848 163.521 39.8205 161.438 36.9367C160.945 36.2539 160.245 29.6205 159.687 27.9435C157.025 28.1182 156.154 31.7449 154.112 31.9368Z"/><path fill="#B13942" d="M148.593 52.3016L149.134 52.4615C150.864 56.0135 152.443 59.2032 153.528 63.0533C153.734 63.7857 154.874 68.1181 155.146 68.4255L155.327 68.6033C156.191 69.4641 161.115 77.3041 162.091 78.8678L162.14 78.7283C162.418 77.9605 162.852 77.2859 163.054 76.6058C163.61 74.7416 163.987 72.7192 164.537 70.8584C164.348 74.6824 159.991 88.2406 157.048 90.697C155.845 92.3273 153.785 94.7799 152.217 96.0119L150.618 95.9662C156.953 86.4652 154.964 72.0695 152.486 61.3086C151.848 58.5401 149.393 55.1119 148.593 52.3016Z"/><path fill="#DC6863" d="M155.146 68.4255L155.327 68.6033C156.191 69.4641 161.115 77.3041 162.091 78.8678L162.14 78.7283C162.418 77.9605 162.852 77.2859 163.054 76.6058C163.61 74.7416 163.987 72.7192 164.537 70.8584C164.348 74.6824 159.991 88.2406 157.048 90.697C157.503 89.3653 160.144 85.9291 159.242 84.7892C158.634 84.9292 158.023 85.0563 157.41 85.1705C157.262 85.0589 157.115 84.9472 156.968 84.8356C156.669 81.6257 157.774 76.8129 157.268 73.6852C156.846 71.0768 156.109 70.2313 155.146 68.4255Z"/><defs><linearGradient id="gradient_5" gradientUnits="userSpaceOnUse" x1="199.77345" y1="228.20119" x2="189.49799" y2="178.06296"><stop offset="0" stop-color="#728158"/><stop offset="1" stop-color="#DEDCB8"/></linearGradient></defs><path fill="url(#gradient_5)" d="M224.409 179.594C226.312 177.095 227.956 175.29 229.66 172.602C231.349 169.941 232.322 167.114 233.794 164.603C233.016 181.086 230.909 192.896 218.211 204.592C205.969 215.87 191.803 219.074 177.127 225.614C173.514 227.224 169.206 229.892 165.992 232.227C164.153 233.654 162.296 236.045 160.389 237.287L157.118 235.556C155.5 233.868 155.141 233.426 155.73 231.105C158.079 228.794 158.905 226.315 160.658 223.574C162.482 220.721 164.595 217.952 166.804 215.439C175.362 205.701 187.286 200.93 198.93 196.047C202.469 194.563 207.435 191.897 211.107 190.103C216.721 187 219.814 184.22 224.409 179.594Z"/><path fill="#D7D3A8" d="M224.409 179.594C224.681 180.82 223.43 180.867 224.402 181.665C225.217 182.333 226.062 181.494 226.554 182.51C225.911 187.436 212.44 198.378 208.149 200.377C208.377 199.741 216.565 194.761 217.029 193.375C215.774 192.941 215.355 191.751 214.663 190.702C214.326 190.192 214.778 189.821 214.268 188.908C213.033 189.07 212.585 190.766 211.107 190.103C216.721 187 219.814 184.22 224.409 179.594Z"/><path fill="#C35860" d="M85.1491 172.364C85.5262 171.787 85.9174 171.219 86.3223 170.661C87.5046 169.036 90.3268 165.051 92.2679 164.742C94.6673 166.024 99.055 169.807 101.465 171.65C102.875 173.276 109.85 176.608 112.018 177.611C112.728 178.854 118.225 180.274 119.721 180.683C121.009 181.031 122.305 181.345 123.61 181.623C122.744 183.422 124.021 184.175 122.901 185.809C122.532 186.347 121.45 186.752 120.84 187.198L121.25 187.399C120.474 188.004 120.494 187.785 120.323 188.534C123.343 192.137 140.74 192.184 142.906 194.722L142.821 195.324L142.442 195.535C141.156 193.036 133.859 193.19 131.058 192.737C119.626 190.887 105.024 187.566 95.6975 196.507C94.5211 197.635 91.0261 203.055 89.9656 203.165C88.6942 199.556 94.3734 190.6 96.5609 187.85C98.217 185.768 104.372 181.4 104.159 179.023C103.527 178.643 102.927 178.65 102.223 178.859C94.6291 181.121 83.291 191.135 79.4723 197.546C79.1766 198.044 78.8863 198.545 78.6013 199.049C78.1587 200.22 76.6502 203.162 75.5773 203.793L75.2141 203.64C74.7052 202.29 75.1894 199.344 75.3591 197.866C76.4615 188.264 80.0201 180.451 85.1491 172.364Z"/><path fill="#F19C99" d="M85.1491 172.364C88.5783 172.068 87.9837 173.747 91.0853 174.87C91.3428 174.964 91.3389 174.96 91.5643 175.129C87.0115 179.208 81.5952 186.95 79.8044 192.929C79.0753 195.364 79.0954 196.787 78.6013 199.049C78.1587 200.22 76.6502 203.162 75.5773 203.793L75.2141 203.64C74.7052 202.29 75.1894 199.344 75.3591 197.866C76.4615 188.264 80.0201 180.451 85.1491 172.364Z"/><path fill="#DC6863" d="M85.1491 172.364C85.5262 171.787 85.9174 171.219 86.3223 170.661C87.5046 169.036 90.3268 165.051 92.2679 164.742C92.8185 170.474 96.0377 171.013 96.2173 171.704C95.6364 172.176 91.9712 175.075 91.5643 175.129C91.3389 174.96 91.3428 174.964 91.0853 174.87C87.9837 173.747 88.5783 172.068 85.1491 172.364Z"/><path fill="#AAA583" d="M139.023 232.616C141.333 232.532 143.325 234.445 145.011 235.342C147.442 236.862 151.137 238.373 152.619 240.611C153.454 241.07 157.114 242.962 157.368 243.643L156.724 244.013C156.961 244.416 157.339 244.843 157.794 244.988C157.551 248.45 158.919 248.854 159.876 251.933C163.113 257.763 160.748 266.609 160.843 272.747C160.929 278.316 168.709 282.89 173.411 284.988C173.986 286.117 174.199 286.182 175.394 286.542L175.582 286.597C174.637 287.382 173.584 286.658 173.117 287.577L173.274 288.316C172.542 288.892 172.501 288.629 171.415 288.767C170.338 288.504 169.267 288.218 168.202 287.911C165.471 286.652 162.485 284.13 160.326 282.023C159.961 282.824 159.464 283.802 159.244 284.635C161.604 288.585 163.934 291.209 168.303 292.94C170.336 293.745 171.745 294.41 173.303 295.978L173.47 296.51L173.213 296.902C171.869 297.319 170.729 297.336 169.351 296.995C163.409 295.524 158.277 293.28 154.777 288.096L154.255 288.042C149.382 294.09 144.814 296.381 137.014 297.666C136.4 297.767 135.599 297.819 134.99 297.697L134.836 297.377L135.267 296.575C138.52 293.853 148.858 290.749 148.861 285.124C147.901 284.481 138.777 289.625 136.243 289.905C130.202 290.573 121.052 292.595 115.218 291.784L115.103 291.503C115.424 291.058 116.192 290.771 116.718 290.639C128.151 287.778 140.715 285.953 148.867 276.491C151.335 273.353 153.175 269.769 154.286 265.935C154.28 265.179 154.571 262.654 154.603 261.671C154.715 258.169 154.423 255.125 153.96 251.775C151.992 237.535 147.819 239.207 139.023 232.616Z"/><defs><linearGradient id="gradient_6" gradientUnits="userSpaceOnUse" x1="155.66022" y1="279.96356" x2="173.33672" y2="292.3866"><stop offset="0" stop-color="#716F4C"/><stop offset="1" stop-color="#93958E"/></linearGradient></defs><path fill="url(#gradient_6)" d="M159.876 251.933C163.113 257.763 160.748 266.609 160.843 272.747C160.929 278.316 168.709 282.89 173.411 284.988C173.986 286.117 174.199 286.182 175.394 286.542L175.582 286.597C174.637 287.382 173.584 286.658 173.117 287.577L173.274 288.316C172.542 288.892 172.501 288.629 171.415 288.767C170.338 288.504 169.267 288.218 168.202 287.911C165.471 286.652 162.485 284.13 160.326 282.023C159.961 282.824 159.464 283.802 159.244 284.635C161.604 288.585 163.934 291.209 168.303 292.94C170.336 293.745 171.745 294.41 173.303 295.978L173.47 296.51L173.213 296.902C171.869 297.319 170.729 297.336 169.351 296.995C163.409 295.524 158.277 293.28 154.777 288.096L154.255 288.042C149.382 294.09 144.814 296.381 137.014 297.666C136.4 297.767 135.599 297.819 134.99 297.697L134.836 297.377L135.267 296.575C136.237 296.711 136.905 296.601 137.85 296.406C143.319 295.276 149.215 294.228 152.407 289.035C153.661 287.016 154.46 284.557 155.539 282.465C158.373 276.973 160.333 272.822 160.763 266.551C161.142 261.033 160.988 257.341 159.876 251.933Z"/><path d="M154.777 288.096C156.278 289.448 157.789 291.086 159.468 292.177C163.283 294.654 168.793 295.93 173.303 295.978L173.47 296.51L173.213 296.902C171.869 297.319 170.729 297.336 169.351 296.995C163.409 295.524 158.277 293.28 154.777 288.096Z"/><path fill="#838473" d="M139.023 232.616C141.333 232.532 143.325 234.445 145.011 235.342C147.442 236.862 151.137 238.373 152.619 240.611C153.505 243.059 155.594 247.637 156.211 249.404C157.768 253.869 156.529 264.079 155.043 268.486C154.973 267.827 154.999 267.312 154.618 266.794L154.371 267.857L154.17 267.727C154.257 267.058 154.273 266.61 154.286 265.935C154.28 265.179 154.571 262.654 154.603 261.671C154.715 258.169 154.423 255.125 153.96 251.775C151.992 237.535 147.819 239.207 139.023 232.616Z"/><path fill="#7B7567" d="M154.286 265.935C154.273 266.61 154.257 267.058 154.17 267.727L154.371 267.857L154.618 266.794C154.999 267.312 154.973 267.827 155.043 268.486C153.902 271.329 152.6 275.223 149.447 276.302L149.248 276.372C149.121 276.411 148.994 276.451 148.867 276.491C151.335 273.353 153.175 269.769 154.286 265.935Z"/><path fill="#C35860" d="M157.342 194.527C158.905 194.494 161.468 192.674 162.556 192.528C165.947 192.071 169.21 191.781 172.611 191.051C174.339 190.681 176.559 190.388 178.281 189.715C178.629 189.797 178.925 189.867 179.17 189.925C177.582 190.474 174.904 191.348 173.501 192.171C168.129 195.32 163.376 201.033 160.678 206.571C158.389 211.34 156.318 216.212 154.474 221.17C154.122 224.016 154.103 228.447 153.729 230.724C153.222 231.35 153.534 231.141 152.763 231.373C150.981 231.025 150.135 230.242 148.765 229.059C148.646 228.839 148.021 227.678 147.985 227.499C147.362 224.373 151.068 218.875 152.153 215.757C152.812 213.865 153.813 211.318 154.487 209.79C154.819 208.256 156.239 205.32 156.734 203.422C157.288 201.294 158.349 196.354 157.342 194.527Z"/><path fill="#E57F7F" d="M154.487 209.79L154.855 210.112C154.547 211.028 151.623 218.89 151.694 219.181C152.901 220.562 150.084 227.142 151.764 230.178C152.455 230.726 152.134 230.607 152.969 230.675C153.788 229.291 153.181 222.069 154.233 220.985L154.474 221.17C154.122 224.016 154.103 228.447 153.729 230.724C153.222 231.35 153.534 231.141 152.763 231.373C150.981 231.025 150.135 230.242 148.765 229.059C148.646 228.839 148.021 227.678 147.985 227.499C147.362 224.373 151.068 218.875 152.153 215.757C152.812 213.865 153.813 211.318 154.487 209.79Z"/><defs><linearGradient id="gradient_7" gradientUnits="userSpaceOnUse" x1="132.39799" y1="108.02367" x2="144.61249" y2="110.84338"><stop offset="0" stop-color="#6B6861"/><stop offset="1" stop-color="#8B8F7F"/></linearGradient></defs><path fill="url(#gradient_7)" d="M131.315 102.7C134.131 102.738 136.903 103.122 139.719 103.066C140.843 103.044 141.797 102.861 142.912 103.093C144.078 103.155 145.734 102.67 146.52 102.961C146.982 103.877 146.787 104.005 146.513 105.208C143.904 110.278 145.236 112.73 144.27 116.556C144.183 117.444 144.148 117.542 143.616 118.257C142.212 118.286 140.718 118.936 139.348 118.351C137.167 117.42 137.608 107.248 131.315 102.7Z"/><path fill="#AAA583" d="M141.395 116.596C140.494 111.657 140.683 109.97 144.197 106.41C143.966 110.086 143.996 112.881 144.27 116.556C144.183 117.444 144.148 117.542 143.616 118.257C142.655 118.031 142.1 117.31 141.395 116.596Z"/><path fill="#838473" d="M173.411 284.988C178.189 286.701 182.856 288.212 187.848 289.226C190.041 289.671 192.312 289.999 194.277 291.108C194.562 291.148 194.669 291.249 194.945 291.394L194.861 291.818C193.645 292.678 192.152 292.848 190.7 292.644C183.648 291.655 174.287 291.943 168.202 287.911C169.267 288.218 170.338 288.504 171.415 288.767C172.501 288.629 172.542 288.892 173.274 288.316L173.117 287.577C173.584 286.658 174.637 287.382 175.582 286.597L175.394 286.542C174.199 286.182 173.986 286.117 173.411 284.988Z"/><path d="M168.202 287.911C169.267 288.218 170.338 288.504 171.415 288.767C175.005 289.709 191.451 292.761 194.277 291.108C194.562 291.148 194.669 291.249 194.945 291.394L194.861 291.818C193.645 292.678 192.152 292.848 190.7 292.644C183.648 291.655 174.287 291.943 168.202 287.911Z"/><path d="M148.765 229.059C150.135 230.242 150.981 231.025 152.763 231.373C153.534 231.141 153.222 231.35 153.729 230.724C154.494 231.241 154.589 231.307 155.73 231.105C155.141 233.426 155.5 233.868 157.118 235.556C156.182 235.194 155.667 234.918 154.666 235L154.231 235.324C154.284 236.199 154.569 236.398 155.155 237.191C153.586 236.207 152.017 235.245 150.504 234.176L151.027 234.092L151.197 233.749C150.675 232.055 149.643 230.645 148.765 229.059Z"/></svg>